<svg width="31" height="40" fill="none" xmlns="http://www.w3.org/2000/svg"><path d="M27.333 7h2.89v19h-2.89V7zm-5.777 5.846h2.888V26h-2.888V12.846zm-5.778-2.923h2.889V26h-2.89V9.923zM10 14.308h2.889V26H10V14.308zM12 34a2 2 0 100-4 2 2 0 000 4z" fill="#49A7FF"/><path d="M21.177 40H2.823a2.81 2.81 0 01-1.996-.838A2.877 2.877 0 010 37.142V2.858C0 2.1.298 1.373.828.837A2.81 2.81 0 012.824 0h18.352v2.857H2.824v34.286h18.352v-5.714H24v5.714c0 .757-.299 1.484-.828 2.02a2.81 2.81 0 01-1.995.837z" fill="#49A7FF"/></svg>