<svg width="38" height="40" fill="none" xmlns="http://www.w3.org/2000/svg"><path d="M5.714 17.143h8.572V20H5.714v-2.857zm0-11.429h17.143v2.857H5.714V5.714zm0 5.715h17.143v2.857H5.714v-2.857zm0 20h8.572v2.857H5.714v-2.857zm27.143 1.428h-8.571A4.286 4.286 0 0020 37.143V40h2.857v-2.857a1.429 1.429 0 011.429-1.429h8.571a1.429 1.429 0 011.429 1.429V40h2.857v-2.857a4.286 4.286 0 00-4.286-4.286zm-4.286-1.428a5.714 5.714 0 100-11.429 5.714 5.714 0 000 11.429zm0-8.572a2.857 2.857 0 110 5.714 2.857 2.857 0 010-5.714z" fill="#49A7FF"/><path d="M14.286 40H2.857A2.86 2.86 0 010 37.143V2.857A2.86 2.86 0 012.857 0h22.857a2.86 2.86 0 012.857 2.857v14.286h-2.857V2.857H2.857v34.286h11.429V40z" fill="#49A7FF"/></svg>