<svg width="102" height="51" fill="none" xmlns="http://www.w3.org/2000/svg"><path d="M40.382 49.642c-3.532 0-6.461-1.179-8.786-3.536-2.302-2.38-3.454-5.338-3.454-8.874 0-3.537 1.152-6.483 3.454-8.84 2.325-2.38 5.253-3.571 8.786-3.571 2.123 0 4.09.51 5.901 1.53 1.81 1.02 3.23 2.392 4.259 4.114l-5.198 3.026c-.447-.838-1.117-1.496-2.012-1.972-.871-.498-1.855-.748-2.95-.748-1.878 0-3.398.601-4.56 1.802-1.141 1.18-1.711 2.732-1.711 4.659 0 1.926.57 3.49 1.71 4.692 1.163 1.178 2.683 1.768 4.56 1.768 1.096 0 2.08-.238 2.951-.714.895-.499 1.565-1.179 2.012-2.04l5.198 3.06c-1.029 1.745-2.448 3.128-4.259 4.148-1.788.997-3.755 1.496-5.901 1.496z" fill="#49A7FF"/><path d="M79.086 25.05v24.47h-6.991V37.6l-5.453 9.158h-.63L60.56 37.6v11.92h-6.991V25.05h6.99l5.768 9.963 5.768-9.962h6.99zm13.926-.229c2.54 0 4.674.816 6.4 2.447 1.725 1.63 2.588 3.711 2.588 6.24 0 2.53-.863 4.61-2.589 6.241-1.725 1.631-3.859 2.447-6.4 2.447h-3.343v7.446h-6.435V24.821h9.779zm0 11.347c.719 0 1.318-.248 1.797-.745.504-.496.755-1.135.755-1.915s-.251-1.406-.754-1.879c-.48-.496-1.079-.745-1.798-.745h-3.344v5.284h3.344z" fill="#fff"/><rect x="3.521" y="3.5" width="19.216" height="43.248" rx="9.608" stroke="#49A7FF" stroke-width="7"/><rect x="3.521" y="27.531" width="19.216" height="19.216" rx="9.608" stroke="url(#paint0_linear_1_253)" stroke-width="7"/><defs><linearGradient id="paint0_linear_1_253" x1="13.129" y1="24.031" x2="13.129" y2="50.248" gradientUnits="userSpaceOnUse"><stop stop-color="#044C8E"/><stop offset="1" stop-color="#49A7FF"/></linearGradient></defs></svg>