<svg width="169" height="83" fill="none" xmlns="http://www.w3.org/2000/svg"><path d="M67.217 82c-5.834 0-10.672-1.947-14.512-5.841C48.902 72.227 47 67.34 47 61.5c0-5.841 1.902-10.709 5.705-14.603C56.545 42.966 61.383 41 67.217 41c3.508 0 6.758.843 9.749 2.527 2.99 1.685 5.335 3.95 7.034 6.796l-8.585 4.999c-.739-1.386-1.847-2.471-3.324-3.258-1.44-.823-3.065-1.235-4.874-1.235-3.102 0-5.613.992-7.533 2.977-1.883 1.947-2.825 4.511-2.825 7.694s.942 5.766 2.825 7.75c1.92 1.948 4.431 2.921 7.533 2.921 1.81 0 3.434-.393 4.874-1.18 1.477-.823 2.585-1.946 3.324-3.37L84 72.678c-1.699 2.883-4.043 5.167-7.034 6.852-2.954 1.646-6.204 2.47-9.749 2.47z" fill="#49A7FF"/><path d="M131.15 41.38v40.417h-11.548V62.108l-9.008 15.128h-1.039l-9.007-15.128v19.69H89V41.38h11.548l9.527 16.455 9.527-16.455h11.548zm23.003-.38c4.197 0 7.721 1.347 10.571 4.041 2.851 2.695 4.276 6.13 4.276 10.309 0 4.178-1.425 7.614-4.276 10.309-2.85 2.694-6.374 4.041-10.571 4.041h-5.523V82H138V41h16.153zm0 18.743c1.188 0 2.178-.41 2.97-1.23.831-.82 1.247-1.874 1.247-3.163 0-1.289-.416-2.323-1.247-3.104-.792-.82-1.782-1.23-2.97-1.23h-5.523v8.727h5.523z" fill="#fff"/><rect x="5.548" y="5" width="33.304" height="73" rx="16.652" stroke="#49A7FF" stroke-width="10"/><rect x="5.548" y="44.696" width="33.304" height="33.304" rx="16.652" stroke="url(#paint0_linear_1_151)" stroke-width="10"/><defs><linearGradient id="paint0_linear_1_151" x1="22.2" y1="39.696" x2="22.2" y2="83" gradientUnits="userSpaceOnUse"><stop stop-color="#044C8E"/><stop offset="1" stop-color="#49A7FF"/></linearGradient></defs></svg>